<?xml version="1.0" encoding="UTF-8"?>
<svg version="1.1" xmlns="http://www.w3.org/2000/svg" width="1248" height="832">
<path d="M0 0 C411.84 0 823.68 0 1248 0 C1248 274.56 1248 549.12 1248 832 C836.16 832 424.32 832 0 832 C0 557.44 0 282.88 0 0 Z " fill="#FDFDFD" transform="translate(0,0)"/>
<path d="M0 0 C1.08539063 0.37898438 2.17078125 0.75796875 3.2890625 1.1484375 C6 3 6 3 7.0234375 6.57421875 C7.16886984 7.94260481 7.2852508 9.3143372 7.375 10.6875 C7.44332031 11.38939453 7.51164062 12.09128906 7.58203125 12.81445312 C7.74644173 14.54076316 7.87660016 16.2702747 8 18 C5.03 17.01 2.06 16.02 -1 15 C1.04816283 19.09632566 1.43473703 19.51163957 5.125 21.5625 C10.93580448 25.20720232 14.29941134 30.33315851 18 36 C22.38672725 31.8597181 25.99026681 27.30481853 29.625 22.5 C30.19734375 21.75363281 30.7696875 21.00726563 31.359375 20.23828125 C37.77001776 12.07556473 37.77001776 12.07556473 39 2 C36.69 1.34 34.38 0.68 32 0 C32 -0.99 32 -1.98 32 -3 C44.87 -3 57.74 -3 71 -3 C71 -2.01 71 -1.02 71 0 C70.09121094 0.05994141 70.09121094 0.05994141 69.1640625 0.12109375 C55.38010601 1.83878679 47.53497386 14.90738303 39.5234375 25.07568359 C37.36092601 27.80724057 35.1509937 30.49708578 32.9375 33.1875 C31.62280262 34.78986629 30.31015461 36.39391724 29 38 C27.91138672 39.31484375 27.91138672 39.31484375 26.80078125 40.65625 C25.08415692 42.89046821 24.40692032 44.25328782 24 47 C24.66 47 25.32 47 26 47 C27.19824219 48.35083008 27.19824219 48.35083008 28.546875 50.26953125 C29.30919434 51.34170898 29.30919434 51.34170898 30.08691406 52.43554688 C30.63573242 53.21994141 31.18455078 54.00433594 31.75 54.8125 C32.92635535 56.46536211 34.10346414 58.11768818 35.28125 59.76953125 C35.89226562 60.6301416 36.50328125 61.49075195 37.1328125 62.37744141 C52.85658489 87.18035821 52.85658489 87.18035821 77.3125 100.73828125 C77.869375 100.82464844 78.42625 100.91101563 79 101 C79 102.32 79 103.64 79 105 C63.49 105 47.98 105 32 105 C32 104.01 32 103.02 32 102 C35.96 101.01 35.96 101.01 40 100 C38.64096766 93.62953592 35.73684157 89.15252078 32 83.875 C31.42419189 83.04621338 30.84838379 82.21742676 30.25512695 81.36352539 C25.94426086 75.20608131 21.42987727 69.23601535 16.73046875 63.37109375 C15 61 15 61 15 59 C11.67561516 60.39896146 10.02764008 61.90835031 7.93359375 64.82421875 C7.08897583 65.98642944 7.08897583 65.98642944 6.22729492 67.17211914 C5.6366626 68.00219482 5.04603027 68.83227051 4.4375 69.6875 C3.19273096 71.40887053 1.94793899 73.13022447 0.703125 74.8515625 C0.08373047 75.71426758 -0.53566406 76.57697266 -1.17382812 77.46582031 C-4.31415347 81.82365147 -7.51742553 86.13512316 -10.71118164 90.45385742 C-14.2905952 95.27444828 -14.2905952 95.27444828 -15.1875 101 C-15.20167969 101.70125 -15.21585937 102.4025 -15.23046875 103.125 C-15.16512323 105.24524938 -15.16512323 105.24524938 -13 107 C-10.42938689 107.64767793 -10.42938689 107.64767793 -8 108 C-8 108.99 -8 109.98 -8 111 C-21.53 111 -35.06 111 -49 111 C-49 110.01 -49 109.02 -49 108 C-44.71 106.35 -40.42 104.7 -36 103 C-36.33 101.68 -36.66 100.36 -37 99 C-37.825 99.495 -38.65 99.99 -39.5 100.5 C-46.0555601 103.30952576 -50.50698806 102.40798437 -56.9375 99.875 C-70.96199425 93.57720824 -81.32383879 84.32904826 -86.97265625 69.85546875 C-87.31167969 68.91316406 -87.65070313 67.97085938 -88 67 C-88.25515381 66.35087646 -88.51030762 65.70175293 -88.77319336 65.03295898 C-90.94668451 59.17209904 -91.50942609 53.91481489 -91.4375 47.6875 C-91.42992676 46.76541748 -91.42235352 45.84333496 -91.41455078 44.89331055 C-91.10295648 31.96214725 -86.24242794 20.22775339 -77.5859375 10.49609375 C-56.31482814 -9.57000203 -26.19725147 -9.78913253 0 0 Z " fill="#FDFCFB" transform="translate(390,346)"/>
<path d="M0 0 C12.87 0 25.74 0 39 0 C39 0.99 39 1.98 39 3 C38.09121094 3.05994141 38.09121094 3.05994141 37.1640625 3.12109375 C23.38010601 4.83878679 15.53497386 17.90738303 7.5234375 28.07568359 C5.36092601 30.80724057 3.1509937 33.49708578 0.9375 36.1875 C-0.37719738 37.78986629 -1.68984539 39.39391724 -3 41 C-4.08861328 42.31484375 -4.08861328 42.31484375 -5.19921875 43.65625 C-6.91584308 45.89046821 -7.59307968 47.25328782 -8 50 C-7.34 50 -6.68 50 -6 50 C-4.80175781 51.35083008 -4.80175781 51.35083008 -3.453125 53.26953125 C-2.69080566 54.34170898 -2.69080566 54.34170898 -1.91308594 55.43554688 C-1.36426758 56.21994141 -0.81544922 57.00433594 -0.25 57.8125 C0.92635535 59.46536211 2.10346414 61.11768818 3.28125 62.76953125 C3.89226562 63.6301416 4.50328125 64.49075195 5.1328125 65.37744141 C20.85658489 90.18035821 20.85658489 90.18035821 45.3125 103.73828125 C46.1478125 103.86783203 46.1478125 103.86783203 47 104 C47 105.32 47 106.64 47 108 C31.49 108 15.98 108 0 108 C0 107.01 0 106.02 0 105 C3.96 104.01 3.96 104.01 8 103 C6.64096766 96.62953592 3.73684157 92.15252078 0 86.875 C-0.57580811 86.04621338 -1.15161621 85.21742676 -1.74487305 84.36352539 C-6.05573914 78.20608131 -10.57012273 72.23601535 -15.26953125 66.37109375 C-17 64 -17 64 -17 62 C-20.32438484 63.39896146 -21.97235992 64.90835031 -24.06640625 67.82421875 C-24.91102417 68.98642944 -24.91102417 68.98642944 -25.77270508 70.17211914 C-26.3633374 71.00219482 -26.95396973 71.83227051 -27.5625 72.6875 C-28.80726904 74.40887053 -30.05206101 76.13022447 -31.296875 77.8515625 C-32.2259668 79.14562012 -32.2259668 79.14562012 -33.17382812 80.46582031 C-36.31415347 84.82365147 -39.51742553 89.13512316 -42.71118164 93.45385742 C-46.2905952 98.27444828 -46.2905952 98.27444828 -47.1875 104 C-47.20167969 104.70125 -47.21585937 105.4025 -47.23046875 106.125 C-47.16512323 108.24524938 -47.16512323 108.24524938 -45 110 C-42.42938689 110.64767793 -42.42938689 110.64767793 -40 111 C-40 111.99 -40 112.98 -40 114 C-53.53 114 -67.06 114 -81 114 C-81 113.01 -81 112.02 -81 111 C-80.02160156 110.67128906 -79.04320312 110.34257812 -78.03515625 110.00390625 C-63.45396278 104.83732696 -56.42276911 95.53381132 -47.34765625 83.4296875 C-44.18602586 79.22092218 -40.92616457 75.09978281 -37.625 71 C-36.8834668 70.07296265 -36.8834668 70.07296265 -36.12695312 69.12719727 C-33.99564229 66.46486125 -31.85041184 63.82144318 -29.66015625 61.20703125 C-29.00917969 60.41683594 -28.35820312 59.62664062 -27.6875 58.8125 C-26.85798828 57.83216797 -26.85798828 57.83216797 -26.01171875 56.83203125 C-24.79511684 55.06742398 -24.79511684 55.06742398 -25.28149414 53.11865234 C-26.06373181 50.81207454 -27.04919306 49.23366433 -28.484375 47.26953125 C-29.00136963 46.55700195 -29.51836426 45.84447266 -30.05102539 45.11035156 C-30.61168701 44.35206055 -31.17234863 43.59376953 -31.75 42.8125 C-32.32548584 42.02456055 -32.90097168 41.23662109 -33.49389648 40.42480469 C-38.13355214 34.10092066 -42.87656066 27.85614066 -47.68457031 21.65942383 C-50.62172032 17.86397331 -53.39119808 14.02894109 -56 10 C-48.74573611 10.87309863 -43.1954258 14.33788022 -37 18 C-36.04335449 18.56001709 -36.04335449 18.56001709 -35.06738281 19.13134766 C-25.93577134 24.56359045 -19.51928694 29.72477657 -14 39 C-9.61327275 34.8597181 -6.00973319 30.30481853 -2.375 25.5 C-1.80265625 24.75363281 -1.2303125 24.00726563 -0.640625 23.23828125 C5.77001776 15.07556473 5.77001776 15.07556473 7 5 C4.69 4.34 2.38 3.68 0 3 C0 2.01 0 1.02 0 0 Z " fill="#12223D" transform="translate(422,343)"/>
<path d="M0 0 C1.08539063 0.37898438 2.17078125 0.75796875 3.2890625 1.1484375 C6 3 6 3 7.0234375 6.57421875 C7.16886984 7.94260481 7.2852508 9.3143372 7.375 10.6875 C7.44332031 11.38939453 7.51164062 12.09128906 7.58203125 12.81445312 C7.74644173 14.54076316 7.87660016 16.2702747 8 18 C4.33650281 16.66367096 1.34328315 15.00313822 -1.875 12.8125 C-6.40263722 9.87814816 -10.9982237 7.40796258 -15.875 5.125 C-16.50519043 4.82698486 -17.13538086 4.52896973 -17.78466797 4.22192383 C-24.2416241 1.26528138 -29.82799705 0.7961404 -36.8125 0.75 C-37.58142578 0.729375 -38.35035156 0.70875 -39.14257812 0.6875 C-48.38432107 0.62510849 -54.35132067 3.59317245 -61.0234375 9.8984375 C-70.58242489 20.06194583 -71.50774801 35.15476041 -71.27734375 48.44140625 C-70.7017272 61.8925055 -65.956705 75.44350004 -56.75 85.44140625 C-50.42508124 91.07453702 -43.13870624 94.02593083 -35 96 C-38.74160612 100.0088637 -41.00954759 101.75119345 -46.5 102.4375 C-58.66168952 102.097788 -70.23088851 93.38268136 -78.28515625 84.9296875 C-83.07235865 79.5427217 -85.58970928 73.69932515 -88 67 C-88.25515381 66.35087646 -88.51030762 65.70175293 -88.77319336 65.03295898 C-90.94668451 59.17209904 -91.50942609 53.91481489 -91.4375 47.6875 C-91.42992676 46.76541748 -91.42235352 45.84333496 -91.41455078 44.89331055 C-91.10295648 31.96214725 -86.24242794 20.22775339 -77.5859375 10.49609375 C-56.31482814 -9.57000203 -26.19725147 -9.78913253 0 0 Z " fill="#B29758" transform="translate(390,346)"/>
<path d="M0 0 C2.97986639 1.52678667 5.05269096 3.27501163 7 6 C7.8985348 9.92087914 7.22818551 11.54362899 5.4375 15.125 C2.52448215 18.56086721 0.00189842 19.99905079 -4 22 C-2.3718356 25.75730247 0.01401917 28.616823 2.625 31.75 C3.44226563 32.73484375 4.25953125 33.7196875 5.1015625 34.734375 C5.72804688 35.48203125 6.35453125 36.2296875 7 37 C10.61593557 31.45297162 10.61593557 31.45297162 11 25 C9.68 24.34 8.36 23.68 7 23 C7 22.34 7 21.68 7 21 C12.61 21 18.22 21 24 21 C24 21.99 24 22.98 24 24 C23.113125 24.165 22.22625 24.33 21.3125 24.5 C17.23707384 26.345476 16.2258415 28.23748806 14.10546875 32.0390625 C13 34 13 34 11.125 36.25 C9.82538036 37.92489478 9.82538036 37.92489478 10 39.9375 C11.4827637 42.99570012 13.4099166 44.82197533 16 47 C18.67790896 47.87238858 18.67790896 47.87238858 21 48 C21 48.99 21 49.98 21 51 C17.04 51 13.08 51 9 51 C9 50.34 9 49.68 9 49 C6.53111771 47.47433437 6.53111771 47.47433437 3 47 C0.61694728 47.96379731 0.61694728 47.96379731 -1.8125 49.375 C-6.72526032 52.07886508 -10.45147088 52.95847912 -16 52 C-19.85554931 50.69056816 -21.64640284 49.39081791 -24.375 46.375 C-26.46387345 42.03657053 -27.19324527 38.7172963 -26 34 C-23.10989013 29.27733444 -19.53962623 25.34293969 -14 24 C-14.66 23.05125 -15.32 22.1025 -16 21.125 C-18.58696084 16.56304755 -19.02573211 12.12866053 -18 7 C-13.02835468 0.55029796 -7.89557385 -1.35966075 0 0 Z " fill="#232F4B" transform="translate(742,361)"/>
<path d="M0 0 C0.20079825 5.45068642 -0.51097757 10.19912312 -1.75 15.49609375 C-2.11459348 17.1230446 -2.47917649 18.7499978 -2.84375 20.37695312 C-3.42087218 22.9094693 -4.00087401 25.44130731 -4.58203125 27.97290039 C-5.14507812 30.43742742 -5.69782546 32.9041118 -6.25 35.37109375 C-6.42499023 36.11717392 -6.59998047 36.86325409 -6.78027344 37.63194275 C-7.87310571 42.5280086 -8.15857598 46.98255697 -8 52 C-5.69 52 -3.38 52 -1 52 C-1 52.66 -1 53.32 -1 54 C-5.54032956 56.17935819 -8.85087206 57.59873581 -14 57 C-14.66 56.34 -15.32 55.68 -16 55 C-16 54.01 -16 53.02 -16 52 C-17.3921875 52.9590625 -17.3921875 52.9590625 -18.8125 53.9375 C-23.74354735 57.1281777 -28.22791558 57.91138175 -34 57 C-36.77645105 54.91766171 -38.39338877 53.35320968 -39.8125 50.1875 C-40.55048739 41.57764712 -39.7537517 35.1517635 -34.25 28.25 C-30.11411362 23.85247604 -26.76234654 21.19731047 -20.6640625 20.76171875 C-17.43174005 20.75120143 -14.2271883 20.82529507 -11 21 C-9.61470179 15.54538831 -8.7603057 10.63281599 -9 5 C-11.475 4.505 -11.475 4.505 -14 4 C-14 3.01 -14 2.02 -14 1 C-4.58997722 -0.14806378 -4.58997722 -0.14806378 0 0 Z " fill="#B59B5E" transform="translate(704,355)"/>
<path d="M0 0 C0.61875 0.495 1.2375 0.99 1.875 1.5 C1.875 0.84 1.875 0.18 1.875 -0.5 C3.525 -0.5 5.175 -0.5 6.875 -0.5 C6.1656594 3.9470199 5.29706204 8.34254345 4.375 12.75 C3.16429039 18.64610479 2.28489679 24.49289182 1.875 30.5 C4.185 30.17 6.495 29.84 8.875 29.5 C7.875 32.5 7.875 32.5 6.3125 33.6875 C2.64404319 34.91031894 -0.25546019 34.81205966 -4.125 34.5 C-4.785 33.51 -5.445 32.52 -6.125 31.5 C-6.681875 31.7165625 -7.23875 31.933125 -7.8125 32.15625 C-13.16578284 34.10947482 -17.42519556 35.07964113 -23.125 34.5 C-26.17866608 33.05352659 -26.92464004 31.92075592 -28.375 28.875 C-30.06634631 21.26394162 -29.53523471 15.78917271 -25.7578125 8.87109375 C-19.73636988 0.12703713 -10.25408495 -4.92196077 0 0 Z " fill="#B79B5F" transform="translate(653.125,377.5)"/>
<path d="M0 0 C3.82533088 3.41838079 3.82533088 3.41838079 4.2109375 7.56640625 C4.43438904 15.53331291 4.03627833 21.29354999 -1.0625 27.625 C-3.5 30 -3.5 30 -6.0625 31.625 C-6.97 32.2025 -7.8775 32.78 -8.8125 33.375 C-13.51792499 35.18477884 -18.3759089 35.64870107 -23.1640625 33.82421875 C-26.68491897 31.60013863 -28.47267943 28.41028708 -30.0625 24.625 C-31.13115789 18.37137233 -30.29314206 12.1193666 -27.0625 6.625 C-20.66176486 -1.5698806 -9.45304895 -6.5937934 0 0 Z " fill="#B4985B" transform="translate(546.0625,378.375)"/>
<path d="M0 0 C7.26 0 14.52 0 22 0 C22 0.66 22 1.32 22 2 C20.35 2.33 18.7 2.66 17 3 C17.67091277 6.50183741 19.07424718 9.18603252 20.875 12.25 C21.38804687 13.14203125 21.90109375 14.0340625 22.4296875 14.953125 C23.20699219 15.96632813 23.20699219 15.96632813 24 17 C24.99 17 25.98 17 27 17 C28.92893262 14.92087161 28.92893262 14.92087161 30.6875 12.25 C31.31011719 11.36828125 31.93273437 10.4865625 32.57421875 9.578125 C34.32263559 6.90762295 34.32263559 6.90762295 34 3 C32.68 2.67 31.36 2.34 30 2 C30 1.34 30 0.68 30 0 C35.61 0 41.22 0 47 0 C47 0.66 47 1.32 47 2 C46.175 2.309375 45.35 2.61875 44.5 2.9375 C39.57926904 5.39204902 36.41094322 9.81479359 33 14 C32.44183594 14.6496875 31.88367188 15.299375 31.30859375 15.96875 C29.67335246 17.90707781 29.67335246 17.90707781 28 21 C29.63218907 26.57367375 33.19872872 31.34577573 36.3125 36.1875 C37.16618164 37.55938477 37.16618164 37.55938477 38.03710938 38.95898438 C38.59849609 39.83232422 39.15988281 40.70566406 39.73828125 41.60546875 C40.24399658 42.40106201 40.74971191 43.19665527 41.27075195 44.01635742 C43.31084888 46.35657873 45.07074191 47.07465967 48 48 C48 48.66 48 49.32 48 50 C41.07 50 34.14 50 27 50 C27 49.34 27 48.68 27 48 C28.485 47.505 28.485 47.505 30 47 C29.71105501 40.35426532 27.00464712 35.27933586 23 30 C22.34 30 21.68 30 21 30 C18.97785197 32.52910699 18.97785197 32.52910699 16.9375 35.6875 C16.22464844 36.74324219 15.51179687 37.79898438 14.77734375 38.88671875 C13.14754581 41.74155162 12.38933108 43.77154688 12 47 C13.65 47.33 15.3 47.66 17 48 C17 48.66 17 49.32 17 50 C11.39 50 5.78 50 0 50 C0 49.01 0 48.02 0 47 C1.0209375 46.7525 1.0209375 46.7525 2.0625 46.5 C6.44771195 44.26074283 8.93835095 40.78507667 12 37 C12.67289063 36.22398437 13.34578125 35.44796875 14.0390625 34.6484375 C14.68617188 33.87757813 15.33328125 33.10671875 16 32.3125 C16.598125 31.60738281 17.19625 30.90226562 17.8125 30.17578125 C19.18058804 28.08224422 19.18058804 28.08224422 19 25.73828125 C17.54608432 21.75705121 15.31660018 18.40781528 13 14.875 C12.08055737 13.45752594 11.16377576 12.03832132 10.25 10.6171875 C9.84265625 9.99440918 9.4353125 9.37163086 9.015625 8.72998047 C8 7 8 7 7 4 C3.48809191 2.77030122 3.48809191 2.77030122 0 2 C0 1.34 0 0.68 0 0 Z " fill="#1A2843" transform="translate(775,362)"/>
<path d="M0 0 C5.28 0 10.56 0 16 0 C16 0.99 16 1.98 16 3 C15.01 3.33 14.02 3.66 13 4 C13.463207 8.63206998 14.8732263 11.92892528 17.01171875 15.96484375 C18.43715314 18.90022445 19.20987609 21.83950436 20 25 C20.66 25 21.32 25 22 25 C22.18175781 24.35933594 22.36351562 23.71867187 22.55078125 23.05859375 C23.73738903 18.97544595 24.916134 14.99669997 26.6875 11.125 C28.25815499 7.95025138 28.25815499 7.95025138 28 4 C27.01 3.67 26.02 3.34 25 3 C25 2.01 25 1.02 25 0 C33.91 0 42.82 0 52 0 C52.33 10.23 52.66 20.46 53 31 C54.32 31.66 55.64 32.32 57 33 C57 33.66 57 34.32 57 35 C51.06 35 45.12 35 39 35 C39 34.34 39 33.68 39 33 C40.65 32.34 42.3 31.68 44 31 C44.33 22.42 44.66 13.84 45 5 C38.67564771 2.46068458 38.67564771 2.46068458 35.24829102 3.97607422 C32.40006167 6.54006828 31.42414335 8.81884052 30.02734375 12.3828125 C29.65265709 13.30512161 29.65265709 13.30512161 29.270401 14.24606323 C28.47726629 16.19991504 27.7051314 18.16100048 26.9375 20.125 C25.92236851 22.71834621 24.88737288 25.3024106 23.83984375 27.8828125 C23.16489868 29.60588623 23.16489868 29.60588623 22.47631836 31.36376953 C21 34 21 34 18.82250977 34.88232422 C17.92036743 34.94057373 17.92036743 34.94057373 17 35 C16.75354736 34.41621582 16.50709473 33.83243164 16.25317383 33.23095703 C15.10962701 30.52754295 13.96108829 27.82627578 12.8125 25.125 C12.42513672 24.2071875 12.03777344 23.289375 11.63867188 22.34375 C9.63732981 17.64638515 7.5778092 12.97940414 5.38671875 8.3671875 C4.80796997 7.14298096 4.80796997 7.14298096 4.2175293 5.89404297 C3.07101909 3.67532319 3.07101909 3.67532319 0 3 C0 2.01 0 1.02 0 0 Z " fill="#172340" transform="translate(856,377)"/>
<path d="M0 0 C3.08073848 1.3831887 4.6384567 2.6384567 7 5 C7.31884766 7.70556641 7.31884766 7.70556641 7.4140625 11.1015625 C7.45273437 12.31328125 7.49140625 13.525 7.53125 14.7734375 C7.5621875 16.04445313 7.593125 17.31546875 7.625 18.625 C7.66367187 19.90375 7.70234375 21.1825 7.7421875 22.5 C7.83671049 25.66652017 7.92226357 28.8330304 8 32 C9.65 32.33 11.3 32.66 13 33 C12.67 33.99 12.34 34.98 12 36 C9.03 36 6.06 36 3 36 C2.34 34.68 1.68 33.36 1 32 C0.14728516 32.54140625 0.14728516 32.54140625 -0.72265625 33.09375 C-5.56183033 36.0021017 -9.1967454 38.1160105 -15 37 C-17.92539902 35.00823896 -19.58729794 33.55075925 -20.515625 30.0625 C-20.85284888 26.0158135 -20.35237112 24.41903593 -17.6875 21.25 C-12.7258133 17.74833116 -6.0856894 15 0 15 C-0.0870005 13.37399059 -0.1951781 11.74910322 -0.3125 10.125 C-0.37050781 9.22007812 -0.42851563 8.31515625 -0.48828125 7.3828125 C-0.7882039 4.63778399 -0.7882039 4.63778399 -4 3 C-7.63939932 3.31730524 -7.63939932 3.31730524 -11 4 C-10.979375 5.134375 -10.95875 6.26875 -10.9375 7.4375 C-11 11 -11 11 -12 12 C-14.4375 12.1875 -14.4375 12.1875 -17 12 C-17.66 11.34 -18.32 10.68 -19 10 C-18.9375 7.625 -18.9375 7.625 -18 5 C-12.21486731 -0.34012248 -7.67085266 -0.64293274 0 0 Z " fill="#202B42" transform="translate(845,376)"/>
<path d="M0 0 C1.30710937 0.02578125 2.61421875 0.0515625 3.9609375 0.078125 C8.25104093 0.27599141 12.43565796 0.65325024 16.6875 1.25 C16.54583643 3.16697937 16.39900416 5.08357723 16.25 7 C16.16878906 8.06734375 16.08757813 9.1346875 16.00390625 10.234375 C15.74659227 12.68679962 15.36937782 14.88921291 14.6875 17.25 C13.6975 17.25 12.7075 17.25 11.6875 17.25 C11.60113281 16.56292969 11.51476562 15.87585938 11.42578125 15.16796875 C10.65459315 9.67150934 10.65459315 9.67150934 7.75 5.125 C2.41094485 3.59955567 -3.3366049 2.71017905 -8.44140625 5.3515625 C-14.43978371 10.19690412 -17.85494099 16.71927846 -19.3125 24.25 C-19.90974643 31.31741609 -19.99841647 37.42332146 -16.578125 43.76171875 C-14.51584852 46.18680313 -12.34465116 47.0831485 -9.234375 47.5859375 C-3.44228217 47.69011183 0.92216372 46.63988695 5.6875 43.25 C7.06118345 41.61643049 8.40687515 39.9574998 9.6875 38.25 C10.6775 38.25 11.6675 38.25 12.6875 38.25 C11.32289494 43.87899586 7.20934655 47.00867636 2.6875 50.25 C-2.69316848 53.26275151 -8.21956223 54.0623917 -14.3125 53.25 C-20.60629703 51.15206766 -24.98595648 48.76585839 -28.125 42.8125 C-30.82132263 34.49109052 -30.27763968 25.44990568 -26.6484375 17.53515625 C-20.81724173 7.56074244 -11.90937993 -0.24733915 0 0 Z " fill="#B59958" transform="translate(500.3125,359.75)"/>
<path d="M0 0 C2.55949546 1.85342775 2.97918798 2.93756393 4 6 C4.74443359 5.3503125 4.74443359 5.3503125 5.50390625 4.6875 C8.95396047 1.85937206 11.21683085 0.13274053 15.6875 -0.625 C19.65694028 0.123951 21.38377858 0.90810196 24 4 C24.93558299 9.61349792 23.12042939 14.62181284 21.66796875 20.04296875 C20.81143433 23.83476146 20.77689297 27.13281145 21 31 C23.31 31 25.62 31 28 31 C27 34 27 34 24.875 35.1875 C21.43492332 36.15969558 18.55885075 36.26859251 15 36 C13 34 13 34 12.6875 30.1875 C12.78031773 24.972831 14.01884454 20.13688112 15.34375 15.11328125 C16.00405912 11.98074333 16.11481316 9.19084919 16 6 C11.70991366 5.57099137 9.5721424 5.63106183 5.8984375 8 C2.27365867 11.21362177 1.58120558 14.67975124 0.75 19.3125 C0.45363444 20.76703098 0.15676116 22.2214586 -0.140625 23.67578125 C-0.27791016 24.38557129 -0.41519531 25.09536133 -0.55664062 25.82666016 C-1.25472554 29.2486601 -2.12879218 32.61833805 -3 36 C-5.31 36 -7.62 36 -10 36 C-9.6599275 28.92649193 -8.21374986 22.34205477 -6.37207031 15.53515625 C-5.48000496 12.18950196 -5 9.49657827 -5 6 C-7.97 5.505 -7.97 5.505 -11 5 C-10.1875 3.0625 -10.1875 3.0625 -9 1 C-5.72429875 -0.09190042 -3.43202271 -0.28600189 0 0 Z " fill="#B69B5D" transform="translate(565,376)"/>
<path d="M0 0 C5.61 0 11.22 0 17 0 C17 0.99 17 1.98 17 3 C16.113125 3.165 15.22625 3.33 14.3125 3.5 C10.23707384 5.345476 9.2258415 7.23748806 7.10546875 11.0390625 C6 13 6 13 4.125 15.25 C2.82538036 16.92489478 2.82538036 16.92489478 3 18.9375 C4.4827637 21.99570012 6.4099166 23.82197533 9 26 C11.67790896 26.87238858 11.67790896 26.87238858 14 27 C14 27.99 14 28.98 14 30 C10.04 30 6.08 30 2 30 C2 29.34 2 28.68 2 28 C-0.46888229 26.47433437 -0.46888229 26.47433437 -4 26 C-6.38305272 26.96379731 -6.38305272 26.96379731 -8.8125 28.375 C-13.72526032 31.07886508 -17.45147088 31.95847912 -23 31 C-26.85554931 29.69056816 -28.64640284 28.39081791 -31.375 25.375 C-33.44548494 21.07476205 -33.97774905 17.68818132 -33 13 C-31.60392359 10.30165468 -30.34362631 9.07730514 -28 7 C-26.68 7 -25.36 7 -24 7 C-24.06960938 8.32064453 -24.06960938 8.32064453 -24.140625 9.66796875 C-24.17671875 10.82941406 -24.2128125 11.99085938 -24.25 13.1875 C-24.31960938 14.91033203 -24.31960938 14.91033203 -24.390625 16.66796875 C-23.91842176 20.69586242 -22.976803 22.2763265 -20 25 C-17.56206002 25.67377394 -17.56206002 25.67377394 -15 25.4375 C-14.154375 25.41558594 -13.30875 25.39367187 -12.4375 25.37109375 C-9.92361542 24.98837094 -8.19099987 24.26286798 -6 23 C-5.95745644 21.00045254 -5.95919217 18.99958364 -6 17 C-6.33 16.67 -6.66 16.34 -7 16 C-7.04063832 14.33382885 -7.042721 12.66611905 -7 11 C-4.11424181 11.39803561 -3.17810487 11.79009069 -1.25 14.0625 C-0.8375 14.701875 -0.425 15.34125 0 16 C3.61593557 10.45297162 3.61593557 10.45297162 4 4 C2.68 3.34 1.36 2.68 0 2 C0 1.34 0 0.68 0 0 Z " fill="#1A2743" transform="translate(749,382)"/>
<path d="M0 0 C3.87389675 1.0565173 4.50098361 1.5601232 6.4375 4.9375 C7.76571184 12.99053214 6.18362634 20.7513034 2.4375 27.9375 C-0.45422819 31.29815708 -1.81370853 31.82130822 -6.1875 32.5 C-9.5625 31.9375 -9.5625 31.9375 -11.2421875 29.8203125 C-14.04676175 23.69671546 -13.63395245 16.23689325 -11.578125 9.90625 C-8.94034049 4.37015905 -6.66762935 -0.11697595 0 0 Z " fill="#FBFAF8" transform="translate(536.5625,378.0625)"/>
<path d="M0 0 C1.08539063 0.37898438 2.17078125 0.75796875 3.2890625 1.1484375 C6 3 6 3 7.0234375 6.57421875 C7.16886984 7.94260481 7.2852508 9.3143372 7.375 10.6875 C7.44332031 11.38939453 7.51164062 12.09128906 7.58203125 12.81445312 C7.74644173 14.54076316 7.87660016 16.2702747 8 18 C4.33650281 16.66367096 1.34328315 15.00313822 -1.875 12.8125 C-6.40263722 9.87814816 -10.9982237 7.40796258 -15.875 5.125 C-16.82028564 4.67797729 -16.82028564 4.67797729 -17.78466797 4.22192383 C-24.5986269 1.10180967 -30.81341651 0.75956989 -38.20507812 0.74609375 C-42.15349626 0.60521122 -43.68157137 0.32490683 -46.49609375 -2.546875 C-46.99238281 -3.35640625 -47.48867188 -4.1659375 -48 -5 C-32.58258971 -8.69899479 -14.5582475 -5.43998344 0 0 Z " fill="#B79C5F" transform="translate(390,346)"/>
<path d="M0 0 C1.953125 0.44140625 1.953125 0.44140625 3.953125 2.44140625 C4.2592124 9.75835274 2.89515483 20.27207995 -1.3671875 26.3125 C-3.80667279 28.56678876 -5.92886299 29.42016409 -9.171875 30.00390625 C-12.046875 29.44140625 -12.046875 29.44140625 -14.421875 28.00390625 C-17.24835775 23.54676038 -16.59012342 19.1307104 -15.57421875 14.1015625 C-13.14275241 5.58415046 -9.45756708 -0.49861323 0 0 Z " fill="#FBFAF8" transform="translate(688.046875,378.55859375)"/>
<path d="M0 0 C1.91015625 0.1328125 1.91015625 0.1328125 3.91015625 1.1328125 C4.40426325 9.23982741 4.32010188 19.14362951 -0.4140625 26.0703125 C-2.83897953 28.31065579 -4.99635481 29.11598449 -8.21484375 29.6953125 C-11.08984375 29.1328125 -11.08984375 29.1328125 -13.46484375 27.7578125 C-16.39046748 23.03180493 -15.66791322 17.95201285 -14.58203125 12.65625 C-13.11629415 7.6188317 -11.18141665 4.57834757 -7.08984375 1.1328125 C-5.19099279 -0.76603846 -2.51736472 0.00913744 0 0 Z " fill="#FBFAF8" transform="translate(647.08984375,378.8671875)"/>
<path d="M0 0 C2 2 2 2 2.125 4.625 C2.08375 5.40875 2.0425 6.1925 2 7 C2.66 7 3.32 7 4 7 C4.2475 6.401875 4.495 5.80375 4.75 5.1875 C6.23611853 2.58679257 7.37949839 1.45583423 10 0 C13.20161236 -0.39203417 15.11646047 -0.55957504 17.875 1.1875 C19.39684676 3.63936422 19.43566323 5.16818902 19 8 C15.77208445 10.1519437 14.71599191 10.20086443 11 10 C10.67 8.35 10.34 6.7 10 5 C6.44010368 6.48329013 4.60559227 8.17314918 2.9375 11.5625 C-0.10448644 19.01226271 -1.40649662 27.14267218 -3 35 C-5.31 35 -7.62 35 -10 35 C-9.00459443 27.63399879 -7.77572614 20.54889281 -5.5859375 13.4375 C-4.96970899 10.8739894 -4.89681641 8.62649137 -5 6 C-6.98 5.34 -8.96 4.68 -11 4 C-11 3.34 -11 2.68 -11 2 C-7.18610442 0.20522561 -4.21354337 -0.37453719 0 0 Z " fill="#B69B5F" transform="translate(607,376)"/>
<path d="M0 0 C0.33 10.23 0.66 20.46 1 31 C2.32 31.66 3.64 32.32 5 33 C5 33.66 5 34.32 5 35 C-0.94 35 -6.88 35 -13 35 C-13 34.34 -13 33.68 -13 33 C-11.35 32.34 -9.7 31.68 -8 31 C-7.67 22.42 -7.34 13.84 -7 5 C-8.65 4.67 -10.3 4.34 -12 4 C-12 3.01 -12 2.02 -12 1 C-7.81823821 0.20347395 -4.34015506 0 0 0 Z " fill="#101C36" transform="translate(908,377)"/>
<path d="M0 0 C2.9375 1.5625 2.9375 1.5625 5 4 C5.93558299 9.61349792 4.12042939 14.62181284 2.66796875 20.04296875 C1.81143433 23.83476146 1.77689297 27.13281145 2 31 C4.31 31 6.62 31 9 31 C8 34 8 34 5.875 35.1875 C2.43492332 36.15969558 -0.44114925 36.26859251 -4 36 C-6 34 -6 34 -6.3125 30.1875 C-6.21968227 24.972831 -4.98115546 20.13688112 -3.65625 15.11328125 C-2.99594088 11.98074333 -2.88518684 9.19084919 -3 6 C-5.31 5.34 -7.62 4.68 -10 4 C-9.67 3.01 -9.34 2.02 -9 1 C-5.89951072 -0.55024464 -3.42105782 -0.28992015 0 0 Z " fill="#B49859" transform="translate(584,376)"/>
<path d="M0 0 C2.12109375 2.23046875 2.12109375 2.23046875 4.4375 5.1875 C5.19933594 6.15042969 5.96117187 7.11335938 6.74609375 8.10546875 C7.48988281 9.06066406 8.23367188 10.01585937 9 11 C9.77472656 11.88300781 10.54945313 12.76601563 11.34765625 13.67578125 C11.89292969 14.44277344 12.43820312 15.20976562 13 16 C12 19 12 19 10.24609375 20.15625 C6.1780143 21.68443289 2.26031488 21.75020084 -2 21 C-5.73288309 18.23766651 -6.70852659 16.8197394 -7.43359375 12.29296875 C-7.62707624 7.91322865 -7.67555294 5.00168194 -5.1875 1.3125 C-3 0 -3 0 0 0 Z " fill="#F3F2F0" transform="translate(731,387)"/>
<path d="M0 0 C0.99 0 1.98 0 3 0 C2.54354877 7.07499409 1.65567784 15.47755871 -3.71484375 20.65234375 C-6.62615733 22.36927227 -9.50669472 23.24694147 -12.75 24.1875 C-13.92046875 24.53167969 -15.0909375 24.87585938 -16.296875 25.23046875 C-17.18890625 25.48441406 -18.0809375 25.73835938 -19 26 C-17.98099219 19.57157841 -14.46391865 16.12167639 -9.5625 12.1875 C-5.93101116 9.22059735 -3.7207352 5.77743127 -1.359375 1.7578125 C-0.68648438 0.88769531 -0.68648438 0.88769531 0 0 Z " fill="#B29650" transform="translate(399,419)"/>
<path d="M0 0 C2.8125 0.9375 2.8125 0.9375 4.8125 2.9375 C5.5274971 6.70064261 5.59192657 10.40659442 3.83203125 13.86328125 C2.5625 15.5 2.5625 15.5 -0.1875 17.9375 C-1.5075 17.9375 -2.8275 17.9375 -4.1875 17.9375 C-9.19894641 10.10711498 -9.19894641 10.10711498 -8.1875 4.9375 C-5.60874147 1.37274556 -4.49505989 -0.08813843 0 0 Z " fill="#F2F2F3" transform="translate(738.1875,363.0625)"/>
<path d="M0 0 C2.97986639 1.52678667 5.05269096 3.27501163 7 6 C7.89154219 9.89036594 7.21827371 11.5452631 5.5 15.125 C2.46321726 18.61730015 -0.61498279 20.54403725 -5 22 C-6.32 22 -7.64 22 -9 22 C-8.67 20.68 -8.34 19.36 -8 18 C-8 18.66 -8 19.32 -8 20 C-5.33070993 19.1342843 -3.32258164 18.27808762 -1.1875 16.4375 C0.5808595 12.80770945 0.78027686 8.9625825 0 5 C-2.82568546 2.67961905 -2.82568546 2.67961905 -6.0625 3.1875 C-9.29740953 3.73754498 -9.29740953 3.73754498 -11 7 C-11.39013716 8.9896995 -11.73202649 10.99019869 -12 13 C-12.309375 12.360625 -12.61875 11.72125 -12.9375 11.0625 C-13.8345163 9.06389179 -13.8345163 9.06389179 -15 8 C-15.66 10.97 -16.32 13.94 -17 17 C-17.33 17 -17.66 17 -18 17 C-18.78482206 8.01814754 -18.78482206 8.01814754 -15.6875 4 C-10.25300705 -0.04427383 -6.72765061 -1.15853802 0 0 Z " fill="#152342" transform="translate(742,361)"/>
<path d="M0 0 C7.26 0 14.52 0 22 0 C22 0.66 22 1.32 22 2 C20.35 2.33 18.7 2.66 17 3 C17.51205499 5.66268592 18.29309211 7.56273686 19.5625 10 C21 13 21 13 21 17 C18.2734375 17.3359375 18.2734375 17.3359375 15 17 C12.6640625 14.6640625 12.6640625 14.6640625 10.625 11.625 C9.93664062 10.62726563 9.24828125 9.62953125 8.5390625 8.6015625 C7 6 7 6 7 4 C4.69 3.34 2.38 2.68 0 2 C0 1.34 0 0.68 0 0 Z " fill="#15233C" transform="translate(775,362)"/>
<path d="M0 0 C2.5 0.3125 2.5 0.3125 5 1 C7.5678769 6.13575381 6.86829083 14.37616919 5.10546875 19.703125 C4 21.875 4 21.875 2 25 C1.67 24.34 1.34 23.68 1 23 C-0.32 23.33 -1.64 23.66 -3 24 C-2.69479039 20.18687909 -2.37961671 16.37464766 -2.0625 12.5625 C-1.97548828 11.47388672 -1.88847656 10.38527344 -1.79882812 9.26367188 C-1.71181641 8.22919922 -1.62480469 7.19472656 -1.53515625 6.12890625 C-1.456604 5.17056885 -1.37805176 4.21223145 -1.29711914 3.22485352 C-1 1 -1 1 0 0 Z " fill="#AF9252" transform="translate(544,380)"/>
<path d="M0 0 C0.10815225 1.76949095 0.18566083 3.54087487 0.25 5.3125 C0.29640625 6.29863281 0.3428125 7.28476562 0.390625 8.30078125 C0 11 0 11 -1.7890625 12.8359375 C-4.95925856 14.50505133 -7.47981666 14.3259429 -11 14 C-13 12 -13 12 -13.5 9.1875 C-13 6 -13 6 -10.1875 3.1875 C-6.33811333 0.54576405 -4.68313805 0 0 0 Z " fill="#F5F5F3" transform="translate(845,394)"/>
<path d="M0 0 C0.99 1.32 1.98 2.64 3 4 C2.46375 4.474375 1.9275 4.94875 1.375 5.4375 C-3.13814696 10.30694804 -7.02229648 15.32098923 -8 22 C-6.35 22.33 -4.7 22.66 -3 23 C-3 23.66 -3 24.32 -3 25 C-8.61 25 -14.22 25 -20 25 C-20 24.01 -20 23.02 -20 22 C-18.9790625 21.7525 -18.9790625 21.7525 -17.9375 21.5 C-13.55956673 19.26445961 -11.04413618 15.79227134 -8 12 C-7.3503125 11.20078125 -6.700625 10.4015625 -6.03125 9.578125 C-2.39622547 5.14076886 -2.39622547 5.14076886 0 0 Z " fill="#152844" transform="translate(795,387)"/>
<path d="M0 0 C1.423125 -0.061875 2.84625 -0.12375 4.3125 -0.1875 C5.51326172 -0.23970703 5.51326172 -0.23970703 6.73828125 -0.29296875 C9 0 9 0 10.8125 1.359375 C12 3 12 3 11.6875 5.4375 C11.460625 6.283125 11.23375 7.12875 11 8 C11 9.32 11 10.64 11 12 C11 12.99 11 13.98 11 15 C10.34 15 9.68 15 9 15 C8.773125 14.360625 8.54625 13.72125 8.3125 13.0625 C7.14749104 10.72806339 7.14749104 10.72806339 4.375 10.25 C3.59125 10.1675 2.8075 10.085 2 10 C2 11.65 2 13.3 2 15 C1.34 15 0.68 15 0 15 C0 10.05 0 5.1 0 0 Z " fill="#979DA6" transform="translate(621,446)"/>
<path d="M0 0 C2.12493141 -0.02693575 4.24995912 -0.04636628 6.375 -0.0625 C7.55835938 -0.07410156 8.74171875 -0.08570313 9.9609375 -0.09765625 C13 0 13 0 15 1 C14.67 1.99 14.34 2.98 14 4 C12.68 4 11.36 4 10 4 C6.53685042 8.41017708 4.57630485 14.20359432 2.3125 19.3125 C1.89677734 20.24384766 1.48105469 21.17519531 1.05273438 22.13476562 C0.03230855 24.42192696 -0.98517153 26.71035095 -2 29 C-2.33 28.34 -2.66 27.68 -3 27 C-3.66 27 -4.32 27 -5 27 C-5 26.34 -5 25.68 -5 25 C-4.34 25 -3.68 25 -3 25 C-2.81824219 24.35933594 -2.63648438 23.71867187 -2.44921875 23.05859375 C-1.26261097 18.97544595 -0.083866 14.99669997 1.6875 11.125 C3.25815499 7.95025138 3.25815499 7.95025138 3 4 C2.01 3.67 1.02 3.34 0 3 C0 2.01 0 1.02 0 0 Z " fill="#535E72" transform="translate(881,377)"/>
<path d="M0 0 C0.33 0 0.66 0 1 0 C1.33 10.23 1.66 20.46 2 31 C3.32 31.66 4.64 32.32 6 33 C6 33.66 6 34.32 6 35 C0.06 35 -5.88 35 -12 35 C-12 34.34 -12 33.68 -12 33 C-10.35 32.34 -8.7 31.68 -7 31 C-6.67 23.08 -6.34 15.16 -6 7 C-5.67 7 -5.34 7 -5 7 C-4.67 15.58 -4.34 24.16 -4 33 C-3.01 33 -2.02 33 -1 33 C-0.67 22.11 -0.34 11.22 0 0 Z " fill="#283952" transform="translate(907,377)"/>
<path d="M0 0 C6.8359375 -0.1953125 6.8359375 -0.1953125 9 0 C11 2 11 2 11.3125 5 C11.1578125 6.485 11.1578125 6.485 11 8 C7.5647952 10.29013653 6.014669 10.17842973 2 10 C2 11.65 2 13.3 2 15 C1.34 15 0.68 15 0 15 C0 10.05 0 5.1 0 0 Z " fill="#9CA5AF" transform="translate(601,446)"/>
<path d="M0 0 C5.61 0 11.22 0 17 0 C17 0.99 17 1.98 17 3 C16.113125 3.165 15.22625 3.33 14.3125 3.5 C9.67668627 5.5992364 8.39399202 8.67640238 6 13 C5.24210257 14.17511132 4.47265792 15.34292517 3.6875 16.5 C2.8521875 17.7375 2.8521875 17.7375 2 19 C0.68 18.34 -0.64 17.68 -2 17 C-1.67 16.34 -1.34 15.68 -1 15 C-0.34 15 0.32 15 1 15 C3.15305957 11.14243493 4.39253254 8.44870215 4 4 C2.68 3.34 1.36 2.68 0 2 C0 1.34 0 0.68 0 0 Z " fill="#38465E" transform="translate(749,382)"/>
<path d="M0 0 C3.11937969 1.37252707 4.4897715 1.979543 6 5 C4.68 5 3.36 5 2 5 C1.34 4.34 0.68 3.68 0 3 C-0.99 3.495 -0.99 3.495 -2 4 C-4.33333333 3.66666667 -6.66666667 3.33333333 -9 3 C-9.99 3.495 -9.99 3.495 -11 4 C-10.979375 5.134375 -10.95875 6.26875 -10.9375 7.4375 C-11 11 -11 11 -12 12 C-14.4375 12.1875 -14.4375 12.1875 -17 12 C-17.66 11.34 -18.32 10.68 -19 10 C-18.9375 7.625 -18.9375 7.625 -18 5 C-12.21445539 -0.34050272 -7.67092896 -0.64201137 0 0 Z " fill="#445069" transform="translate(845,376)"/>
<path d="M0 0 C3 1 3 1 4.38671875 3.65234375 C4.81597656 4.73644531 5.24523437 5.82054687 5.6875 6.9375 C6.34298828 8.55978516 6.34298828 8.55978516 7.01171875 10.21484375 C8 13 8 13 8 15 C7.34 15 6.68 15 6 15 C5.67 14.34 5.34 13.68 5 13 C2.36 13 -0.28 13 -3 13 C-3.33 13.66 -3.66 14.32 -4 15 C-4.66 15 -5.32 15 -6 15 C-5.39644592 11.14974121 -4.23227397 8.13898841 -2.4375 4.6875 C-1.98246094 3.80449219 -1.52742187 2.92148437 -1.05859375 2.01171875 C-0.53458984 1.01591797 -0.53458984 1.01591797 0 0 Z " fill="#BBBEC3" transform="translate(647,446)"/>
<path d="M0 0 C2.1793144 1.75864246 2.93686419 2.69396 3.51171875 5.48046875 C3.59873047 6.82044922 3.59873047 6.82044922 3.6875 8.1875 C3.75324219 9.08855469 3.81898438 9.98960937 3.88671875 10.91796875 C3.92410156 11.60503906 3.96148438 12.29210937 4 13 C5.65 13.33 7.3 13.66 9 14 C8.67 14.99 8.34 15.98 8 17 C4.94887567 17.28784192 2.04483381 17.39879239 -1 17 C-3.125 15.1875 -3.125 15.1875 -4 12 C-3.92184782 8.2903766 -3.53344722 4.6698598 -3 1 C-2.01 0.67 -1.02 0.34 0 0 Z " fill="#172641" transform="translate(849,395)"/>
<path d="M0 0 C0.66 0 1.32 0 2 0 C3.00460531 2.12282669 4.00355602 4.24833021 5 6.375 C5.556875 7.55835938 6.11375 8.74171875 6.6875 9.9609375 C8 13 8 13 8 15 C7.34 15 6.68 15 6 15 C5.67 14.34 5.34 13.68 5 13 C2.87423218 12.53348793 2.87423218 12.53348793 0.4375 12.375 C-0.38878906 12.30023438 -1.21507812 12.22546875 -2.06640625 12.1484375 C-2.70449219 12.09945313 -3.34257813 12.05046875 -4 12 C-4 12.99 -4 13.98 -4 15 C-4.99 14.67 -5.98 14.34 -7 14 C-4.69 9.38 -2.38 4.76 0 0 Z " fill="#99A1A9" transform="translate(553,446)"/>
<path d="M0 0 C1.26328125 0.01804687 2.5265625 0.03609375 3.828125 0.0546875 C4.79234375 0.07789063 5.7565625 0.10109375 6.75 0.125 C6.42 1.445 6.09 2.765 5.75 4.125 C2.75 4.125 2.75 4.125 0.6640625 3.9140625 C-3.9502562 3.49429628 -3.9502562 3.49429628 -7.94921875 5.4609375 C-9.4951908 7.28424499 -9.4951908 7.28424499 -11.25 10.125 C-11.58 9.465 -11.91 8.805 -12.25 8.125 C-14.96224618 9.73768692 -17.62352812 11.37401874 -20.25 13.125 C-18.69918167 7.26635296 -14.33848158 4.15904403 -9.4765625 0.95703125 C-6.27739923 -0.23844555 -3.39943417 -0.06295248 0 0 Z " fill="#C1A874" transform="translate(687.25,375.875)"/>
<path d="M0 0 C0.66 0.99 1.32 1.98 2 3 C0.72125 2.95875 -0.5575 2.9175 -1.875 2.875 C-4.01871492 2.75787127 -4.01871492 2.75787127 -6 3 C-8.33278733 4.89107141 -8.33278733 4.89107141 -8.1875 8.0625 C-8.33187793 10.88833136 -8.33187793 10.88833136 -7 12 C-5.00041636 12.04080783 -2.99954746 12.04254356 -1 12 C-0.67 11.01 -0.34 10.02 0 9 C-1.32 9 -2.64 9 -4 9 C-4 8.34 -4 7.68 -4 7 C-1.69 7 0.62 7 3 7 C3.1875 9.875 3.1875 9.875 3 13 C-0.7205836 15.48038907 -2.59796571 15.46337203 -7 15 C-9.4375 13.4375 -9.4375 13.4375 -11 11 C-11.56288002 7.05983987 -11.60396028 4.94217804 -9.4375 1.5625 C-6.10812055 -0.57171759 -3.87532069 -0.50235639 0 0 Z " fill="#9EA4AB" transform="translate(536,446)"/>
<path d="M0 0 C0.66 1.32 1.32 2.64 2 4 C2.66 4 3.32 4 4 4 C3.63302158 6.64789044 3.33134019 7.72983031 1.22265625 9.44921875 C0.50980469 9.85785156 -0.20304688 10.26648438 -0.9375 10.6875 C-1.64777344 11.10386719 -2.35804688 11.52023437 -3.08984375 11.94921875 C-6.23980399 13.68201896 -8.02062637 14.11399105 -11.625 14.0625 C-12.85089844 14.04896484 -12.85089844 14.04896484 -14.1015625 14.03515625 C-15.04128906 14.01775391 -15.04128906 14.01775391 -16 14 C-16.87840996 10.90279155 -16.99435406 9.09354597 -16 6 C-15.34 7.32 -14.68 8.64 -14 10 C-9.66949629 10.42455919 -7.68969225 10.53642731 -4.1875 7.8125 C-2.16489279 5.21200502 -0.98130841 3.12234496 0 0 Z " fill="#BBA065" transform="translate(541,399)"/>
<path d="M0 0 C3.63 0 7.26 0 11 0 C11 0.66 11 1.32 11 2 C8.03 2 5.06 2 2 2 C2 3.32 2 4.64 2 6 C4.97 6 7.94 6 11 6 C11 6.66 11 7.32 11 8 C8.03 8 5.06 8 2 8 C2 9.65 2 11.3 2 13 C4.97 13 7.94 13 11 13 C11 13.66 11 14.32 11 15 C7.37 15 3.74 15 0 15 C0 10.05 0 5.1 0 0 Z " fill="#98A0A9" transform="translate(505,446)"/>
<path d="M0 0 C0.309375 0.639375 0.61875 1.27875 0.9375 1.9375 C1.8345163 3.93610821 1.8345163 3.93610821 3 5 C7.23314767 5.23961213 10.36736489 5.32488647 14 3 C14.33 3.99 14.66 4.98 15 6 C5.48961661 12.03833866 5.48961661 12.03833866 -1 11 C-2.9375 9.5 -2.9375 9.5 -4 8 C-3.34 8 -2.68 8 -2 8 C-1.34 5.36 -0.68 2.72 0 0 Z " fill="#1B2940" transform="translate(831,402)"/>
<path d="M0 0 C-0.33 4.29 -0.66 8.58 -1 13 C-1.66 12.67 -2.32 12.34 -3 12 C-3 9.03 -3 6.06 -3 3 C-4.32 6.63 -5.64 10.26 -7 14 C-6.01 13.67 -5.02 13.34 -4 13 C-4 13.99 -4 14.98 -4 16 C-4.66 16 -5.32 16 -6 16 C-6 16.66 -6 17.32 -6 18 C-5.34 18.33 -4.68 18.66 -4 19 C-4.99 19 -5.98 19 -7 19 C-9.43397539 14.6794493 -9.83352426 10.87485402 -9 6 C-6.81022279 1.71641191 -4.99279573 0 0 0 Z " fill="#23314B" transform="translate(725,389)"/>
<path d="M0 0 C1.94113934 0.92994117 3.8777951 1.8692453 5.8125 2.8125 C6.89144531 3.33457031 7.97039062 3.85664063 9.08203125 4.39453125 C11.56579702 5.76110117 13.1799378 6.87340101 15 9 C14.01 9 13.02 9 12 9 C11.67 9.99 11.34 10.98 11 12 C8.70604107 10.71226848 6.41483216 9.42003228 4.125 8.125 C3.47402344 7.76019531 2.82304687 7.39539063 2.15234375 7.01953125 C-0.50393354 5.51339464 -2.83019001 4.16980999 -5 2 C-4.01 1.67 -3.02 1.34 -2 1 C-1.34 1.33 -0.68 1.66 0 2 C0 1.34 0 0.68 0 0 Z " fill="#E4E4E4" transform="translate(377,352)"/>
<path d="M0 0 C-0.71730736 3.23165844 -1.81315074 6.18707922 -3.0625 9.25 C-3.42472656 10.14203125 -3.78695312 11.0340625 -4.16015625 11.953125 C-4.43730469 12.62859375 -4.71445312 13.3040625 -5 14 C-6.32 13.34 -7.64 12.68 -9 12 C-9.48539326 4.71910112 -9.48539326 4.71910112 -7.3125 1.5 C-4.62023779 -0.24633224 -3.14839906 -0.34982212 0 0 Z " fill="#18263C" transform="translate(834,396)"/>
<path d="M0 0 C7.26 0 14.52 0 22 0 C22 0.66 22 1.32 22 2 C16.25 3.125 16.25 3.125 14 2 C13.34 3.32 12.68 4.64 12 6 C11.34 6 10.68 6 10 6 C9.67 6.99 9.34 7.98 9 9 C8.814375 8.21625 8.62875 7.4325 8.4375 6.625 C7.16038373 3.60623658 7.16038373 3.60623658 3.375 2.6875 C2.26125 2.460625 1.1475 2.23375 0 2 C0 1.34 0 0.68 0 0 Z " fill="#212E4A" transform="translate(775,362)"/>
<path d="M0 0 C5.61 0 11.22 0 17 0 C17 0.66 17 1.32 17 2 C16.113125 2.391875 15.22625 2.78375 14.3125 3.1875 C10.87900897 5.06620264 8.70999302 7.2147294 6 10 C5.34 10 4.68 10 4 10 C4 7.69 4 5.38 4 3 C2.68 2.67 1.36 2.34 0 2 C0 1.34 0 0.68 0 0 Z " fill="#1C2B46" transform="translate(805,362)"/>
<path d="M0 0 C0.33 0 0.66 0 1 0 C1 3.63 1 7.26 1 11 C3.94729537 8.36893239 3.94729537 8.36893239 5 6 C5.66 6 6.32 6 7 6 C7.56561146 11.65611463 5.71391278 15.22642128 3 20 C2.67 19.34 2.34 18.68 2 18 C0.68 18.33 -0.64 18.66 -2 19 C-1.34 12.73 -0.68 6.46 0 0 Z " fill="#B4985B" transform="translate(543,385)"/>
<path d="M0 0 C0.66 0.66 1.32 1.32 2 2 C1.34 2 0.68 2 0 2 C-0.33 2.66 -0.66 3.32 -1 4 C-2.98567708 3.96744792 -4.97135417 3.93489583 -6.95703125 3.90234375 C-9.20305461 3.91736783 -9.20305461 3.91736783 -12 5 C-13.20882096 7.00016466 -13.20882096 7.00016466 -14 9 C-14.33 8.34 -14.66 7.68 -15 7 C-16.98 7.66 -18.96 8.32 -21 9 C-15.29483143 1.4490416 -9.59910129 -1.32937194 0 0 Z " fill="#C1A771" transform="translate(650,376)"/>
<path d="M0 0 C0.268125 0.61875 0.53625 1.2375 0.8125 1.875 C1.95556848 4.2995233 1.95556848 4.2995233 5 6 C5.6875 9.125 5.6875 9.125 6 12 C4 12 2 12 0 12 C0 11.34 0 10.68 0 10 C-0.99 9.67 -1.98 9.34 -3 9 C-4.375 6.6875 -4.375 6.6875 -5 4 C-2.83783784 0 -2.83783784 0 0 0 Z " fill="#122040" transform="translate(801,383)"/>
<path d="M0 0 C0.66 0.33 1.32 0.66 2 1 C2 1.66 2 2.32 2 3 C0.700625 2.979375 -0.59875 2.95875 -1.9375 2.9375 C-3.29165633 2.91600546 -4.64756083 2.92851801 -6 3 C-7.40432936 4.17718985 -7.40432936 4.17718985 -7.125 7.5 C-7.40432936 10.82281015 -7.40432936 10.82281015 -6 12 C-3.32941149 12.14115161 -0.67567762 12.04247107 2 12 C2 12.66 2 13.32 2 14 C-1.12860495 15.56430248 -3.55602925 15.35627284 -7 15 C-9.5 12.9375 -9.5 12.9375 -11 10 C-10.93977486 6.50694211 -10.63658168 4.09633511 -8.875 1.0625 C-5.93234995 -0.60500169 -3.30412652 -0.24030011 0 0 Z " fill="#9BA4AB" transform="translate(673,446)"/>
<path d="M0 0 C3.3 0 6.6 0 10 0 C10 0.66 10 1.32 10 2 C7.36 2 4.72 2 2 2 C2 3.65 2 5.3 2 7 C4.31 7 6.62 7 9 7 C9 7.33 9 7.66 9 8 C6.69 8 4.38 8 2 8 C2 9.65 2 11.3 2 13 C4.64 13 7.28 13 10 13 C10 13.66 10 14.32 10 15 C6.7 15 3.4 15 0 15 C0 10.05 0 5.1 0 0 Z " fill="#959CA7" transform="translate(737,446)"/>
<path d="M0 0 C0.33 0.99 0.66 1.98 1 3 C-0.27875 2.95875 -1.5575 2.9175 -2.875 2.875 C-5.01871492 2.75787127 -5.01871492 2.75787127 -7 3 C-9.2491908 4.82703227 -9.2491908 4.82703227 -9.25 7.5 C-9.2491908 10.17296773 -9.2491908 10.17296773 -7 12 C-4.31160615 12.26991906 -1.70858064 12.08737357 1 12 C0.67 12.99 0.34 13.98 0 15 C-7.24942792 15.60411899 -7.24942792 15.60411899 -10.5625 12.9375 C-12.43625505 9.10852228 -12.12962701 7.06665724 -11 3 C-8.64233488 -1.29927169 -4.33726788 -0.21330826 0 0 Z " fill="#9DA5AD" transform="translate(726,446)"/>
<path d="M0 0 C2.34058637 2.12780579 3.70700306 4.11562221 5 7 C4.34 7 3.68 7 3 7 C1.87483915 8.83284443 1.87483915 8.83284443 1 11 C1.33 11.99 1.66 12.98 2 14 C1.01 15.485 1.01 15.485 0 17 C-0.61875 15.2365625 -0.61875 15.2365625 -1.25 13.4375 C-2.77813175 9.33567267 -4.73887533 5.74255118 -7 2 C-6.34 2 -5.68 2 -5 2 C-5 2.66 -5 3.32 -5 4 C-4.01 3.67 -3.02 3.34 -2 3 C-2 3.66 -2 4.32 -2 5 C-1.34 4.67 -0.68 4.34 0 4 C0 2.68 0 1.36 0 0 Z " fill="#283651" transform="translate(806,391)"/>
<path d="M0 0 C1.01513672 -0.01836914 1.01513672 -0.01836914 2.05078125 -0.03710938 C5.76357044 -0.04809396 7.32983076 0.07405384 10.5 2.1875 C9.51 2.1875 8.52 2.1875 7.5 2.1875 C7.5 2.8475 7.5 3.5075 7.5 4.1875 C6.51257813 4.17589844 5.52515625 4.16429687 4.5078125 4.15234375 C3.22648437 4.14332031 1.94515625 4.13429688 0.625 4.125 C-1.28925781 4.10759766 -1.28925781 4.10759766 -3.2421875 4.08984375 C-6.38664652 3.95573431 -6.38664652 3.95573431 -8.5 5.1875 C-8.5 4.5275 -8.5 3.8675 -8.5 3.1875 C-10.15 3.5175 -11.8 3.8475 -13.5 4.1875 C-9.55450183 -0.1337599 -5.56365605 0.00529872 0 0 Z " fill="#BEA66E" transform="translate(500.5,359.8125)"/>
<path d="M0 0 C3.0625 0.1875 3.0625 0.1875 5.0625 2.1875 C4.50694444 6.74305556 4.50694444 6.74305556 3.0625 8.1875 C0.0625 8.3125 0.0625 8.3125 -2.9375 8.1875 C-3.9375 7.1875 -3.9375 7.1875 -4.0625 4.1875 C-3.89838889 0.24883333 -3.89838889 0.24883333 0 0 Z " fill="#25364D" transform="translate(903.9375,359.8125)"/>
<path d="M0 0 C0.99 1.32 1.98 2.64 3 4 C2.46375 4.474375 1.9275 4.94875 1.375 5.4375 C-2.8845265 10.03330491 -6.3019698 15.34698434 -9 21 C-9.33 20.01 -9.66 19.02 -10 18 C-10.66 17.67 -11.32 17.34 -12 17 C-11.30132813 16.10796875 -10.60265625 15.2159375 -9.8828125 14.296875 C-8.96336137 13.11472354 -8.04410051 11.93242408 -7.125 10.75 C-6.66480469 10.16347656 -6.20460938 9.57695312 -5.73046875 8.97265625 C-3.49615028 6.09070923 -1.4532826 3.37428833 0 0 Z " fill="#32435A" transform="translate(795,387)"/>
<path d="M0 0 C0.99 0 1.98 0 3 0 C1.62968895 5.65253308 -2.67689413 8.5113541 -7 12 C-7.33 11.34 -7.66 10.68 -8 10 C-8.99 10.33 -9.98 10.66 -11 11 C-12.56118428 11.06740865 -14.1250252 11.08514456 -15.6875 11.0625 C-16.89986328 11.04896484 -16.89986328 11.04896484 -18.13671875 11.03515625 C-19.05904297 11.01775391 -19.05904297 11.01775391 -20 11 C-20 10.67 -20 10.34 -20 10 C-18.91332031 9.85304688 -18.91332031 9.85304688 -17.8046875 9.703125 C-11.00697147 8.65174492 -5.65363123 7.53817497 -1.3125 1.75 C-0.879375 1.1725 -0.44625 0.595 0 0 Z " fill="#C3A873" transform="translate(510,398)"/>
<path d="M0 0 C0 3.3 0 6.6 0 10 C-0.66 10 -1.32 10 -2 10 C-2.66 8.02 -3.32 6.04 -4 4 C-4.8971875 4.2784375 -4.8971875 4.2784375 -5.8125 4.5625 C-8 5 -8 5 -11 4 C-11 3.01 -11 2.02 -11 1 C-7.18939869 0.29105092 -3.91978817 0 0 0 Z " fill="#1D2840" transform="translate(907,377)"/>
<path d="M0 0 C0.556875 0.474375 1.11375 0.94875 1.6875 1.4375 C4.18346074 3.12395996 6.0446237 3.58953107 9 4 C9 4.99 9 5.98 9 7 C5.04 7 1.08 7 -3 7 C-3 6.34 -3 5.68 -3 5 C-3.99 4.67 -4.98 4.34 -6 4 C-5.38125 3.896875 -4.7625 3.79375 -4.125 3.6875 C-1.63473516 3.12474627 -1.63473516 3.12474627 0 0 Z " fill="#37475C" transform="translate(754,405)"/>
<path d="M0 0 C0.33 0 0.66 0 1 0 C0.98839844 0.66386719 0.97679687 1.32773437 0.96484375 2.01171875 C0.88383905 7.50978033 0.88383905 7.50978033 1.625 12.9375 C2 15 2 15 0 18 C-2 17 -2 17 -3 14 C-2.34 13.34 -1.68 12.68 -1 12 C-1.99 12 -2.98 12 -4 12 C-3.33501617 7.61110675 -1.81242323 4.0188515 0 0 Z " fill="#071736" transform="translate(722,391)"/>
<path d="M0 0 C0.33 1.32 0.66 2.64 1 4 C1.66 4 2.32 4 3 4 C2.67 5.65 2.34 7.3 2 9 C-0.375 9.125 -0.375 9.125 -3 9 C-3.66 8.34 -4.32 7.68 -5 7 C-4.875 4.5 -4.875 4.5 -4 2 C-1.9375 0.6875 -1.9375 0.6875 0 0 Z " fill="#233350" transform="translate(831,379)"/>
<path d="M0 0 C3.96 0 7.92 0 12 0 C12 0.66 12 1.32 12 2 C10.35 2 8.7 2 7 2 C7 6.29 7 10.58 7 15 C6.34 15 5.68 15 5 15 C5 10.71 5 6.42 5 2 C3.35 2 1.7 2 0 2 C0 1.34 0 0.68 0 0 Z " fill="#929AA4" transform="translate(683,446)"/>
<path d="M0 0 C0.99 0 1.98 0 3 0 C2.67 2.97 2.34 5.94 2 9 C-2 10 -2 10 -5 9 C-3.76067171 5.56801397 -2.49698489 2.69674368 0 0 Z " fill="#B8A262" transform="translate(399,419)"/>
<path d="M0 0 C0.33 0 0.66 0 1 0 C0.55397709 6.69034366 -2.07345542 12.02812122 -5 18 C-5.33 17.34 -5.66 16.68 -6 16 C-6.66 16 -7.32 16 -8 16 C-8 15.34 -8 14.68 -8 14 C-7.34 14 -6.68 14 -6 14 C-5.81824219 13.32453125 -5.63648438 12.6490625 -5.44921875 11.953125 C-5.19785156 11.06109375 -4.94648437 10.1690625 -4.6875 9.25 C-4.32205078 7.92742187 -4.32205078 7.92742187 -3.94921875 6.578125 C-2.97419285 3.9299065 -1.84762559 2.12006368 0 0 Z " fill="#2E3F59" transform="translate(884,388)"/>
<path d="M0 0 C5.28 0 10.56 0 16 0 C16 0.99 16 1.98 16 3 C14.68 3.33 13.36 3.66 12 4 C12 3.34 12 2.68 12 2 C10.8553125 2.556875 10.8553125 2.556875 9.6875 3.125 C8.3571875 3.558125 8.3571875 3.558125 7 4 C6.01 3.34 5.02 2.68 4 2 C3.67 2.66 3.34 3.32 3 4 C2.01 3.67 1.02 3.34 0 3 C0 2.01 0 1.02 0 0 Z " fill="#3C465D" transform="translate(856,377)"/>
<path d="M0 0 C2.86274764 2.86274764 2.9615008 6.10388111 3 10 C2.0625 12.5 2.0625 12.5 1 14 C-0.5 13 -0.5 13 -2 11 C-2.63772451 6.56365558 -2.51756835 3.77635253 0 0 Z " fill="#0B1830" transform="translate(727,368)"/>
<path d="M0 0 C-0.7115625 0.804375 -0.7115625 0.804375 -1.4375 1.625 C-3.28186076 4.42842836 -3.62456847 6.69620258 -4 10 C-4.309375 9.360625 -4.61875 8.72125 -4.9375 8.0625 C-5.8345163 6.06389179 -5.8345163 6.06389179 -7 5 C-7.66 7.97 -8.32 10.94 -9 14 C-9.33 14 -9.66 14 -10 14 C-10.62619962 4.8853167 -10.62619962 4.8853167 -8.1875 1.4375 C-4.981994 -0.66897537 -3.71033728 -1.23677909 0 0 Z " fill="#252F45" transform="translate(734,364)"/>
<path d="M0 0 C0.66 0 1.32 0 2 0 C2 4.29 2 8.58 2 13 C4.64 13 7.28 13 10 13 C10 13.66 10 14.32 10 15 C6.7 15 3.4 15 0 15 C0 10.05 0 5.1 0 0 Z " fill="#939FAB" transform="translate(486,446)"/>
<path d="M0 0 C0.33 0.99 0.66 1.98 1 3 C2.98 3 4.96 3 7 3 C7 2.34 7 1.68 7 1 C7.66 1 8.32 1 9 1 C9.66 3.31 10.32 5.62 11 8 C10.34 8 9.68 8 9 8 C8.67 7.34 8.34 6.68 8 6 C5.36 6 2.72 6 0 6 C-0.33 6.66 -0.66 7.32 -1 8 C-1.66 8 -2.32 8 -3 8 C-2.45276317 4.62537285 -1.9451 2.91765 0 0 Z " fill="#8D959E" transform="translate(644,453)"/>
<path d="M0 0 C0.66 0 1.32 0 2 0 C2 4.29 2 8.58 2 13 C4.64 13 7.28 13 10 13 C10 13.66 10 14.32 10 15 C6.7 15 3.4 15 0 15 C0 10.05 0 5.1 0 0 Z " fill="#959EA8" transform="translate(570,446)"/>
<path d="M0 0 C0.66 0.99 1.32 1.98 2 3 C-2.74211953 6.26679345 -5.90265996 8.14633826 -11.6875 8.0625 C-12.89986328 8.04896484 -12.89986328 8.04896484 -14.13671875 8.03515625 C-15.05904297 8.01775391 -15.05904297 8.01775391 -16 8 C-15.38125 7.54625 -14.7625 7.0925 -14.125 6.625 C-11.94080167 5.02891081 -11.94080167 5.02891081 -10 3 C-9.05125 3.020625 -8.1025 3.04125 -7.125 3.0625 C-3.61540937 2.99230819 -2.52499425 2.33076392 0 0 Z " fill="#C1A56C" transform="translate(686,404)"/>
<path d="M0 0 C2.625 2 2.625 2 4 4 C2.68 4.99 1.36 5.98 0 7 C-0.515625 6.34 -1.03125 5.68 -1.5625 5 C-4.81312924 2.33281703 -6.89544463 2.85074344 -11 3 C-11.99 2.34 -12.98 1.68 -14 1 C-9.37188499 -0.31772719 -4.77585385 -0.61086503 0 0 Z " fill="#BEA468" transform="translate(542,376)"/>
<path d="M0 0 C0.91007813 0.00902344 1.82015625 0.01804687 2.7578125 0.02734375 C3.45648437 0.03894531 4.15515625 0.05054688 4.875 0.0625 C4.875 0.7225 4.875 1.3825 4.875 2.0625 C0.25302694 4.28104707 -2.89324163 5.44531159 -8.125 5.0625 C-8.455 4.4025 -8.785 3.7425 -9.125 3.0625 C-8.465 3.0625 -7.805 3.0625 -7.125 3.0625 C-7.125 2.4025 -7.125 1.7425 -7.125 1.0625 C-4.60024538 -0.19987731 -2.81299534 -0.03606404 0 0 Z " fill="#BBA266" transform="translate(698.125,406.9375)"/>
<path d="M0 0 C0.33 0 0.66 0 1 0 C1 3.3 1 6.6 1 10 C1.66 10.33 2.32 10.66 3 11 C-5.261959 16.74031891 -5.261959 16.74031891 -10 16 C-9.67 14.68 -9.34 13.36 -9 12 C-9 12.66 -9 13.32 -9 14 C-5.09440939 12.73332196 -2.93939313 11.68484694 -1 8 C-0.4712116 5.32012092 -0.22762708 2.73152498 0 0 Z " fill="#475369" transform="translate(743,367)"/>
<path d="M0 0 C1.98 0 3.96 0 6 0 C6.38218767 1.65614657 6.71395102 3.32457024 7 5 C6 6 6 6 2.9375 6.0625 C1.4834375 6.0315625 1.4834375 6.0315625 0 6 C0 4.02 0 2.04 0 0 Z " fill="#F4F4F5" transform="translate(623,448)"/>
<path d="M0 0 C0 3.63 0 7.26 0 11 C-0.33 11 -0.66 11 -1 11 C-1 7.7 -1 4.4 -1 1 C-2.44375 1.474375 -3.8875 1.94875 -5.375 2.4375 C-6.18710937 2.70433594 -6.99921875 2.97117187 -7.8359375 3.24609375 C-10.01031799 3.95179729 -10.01031799 3.95179729 -12 5 C-12 4.34 -12 3.68 -12 3 C-12.99 2.67 -13.98 2.34 -15 2 C-9.32010626 -0.49118146 -6.05525768 -1.38766322 0 0 Z " fill="#4C596E" transform="translate(846,393)"/>
<path d="M0 0 C1.98 0 3.96 0 6 0 C6.33 1.65 6.66 3.3 7 5 C4.69 5.33 2.38 5.66 0 6 C0 4.02 0 2.04 0 0 Z " fill="#F8F7F7" transform="translate(603,448)"/>
<path d="M0 0 C1 2 1 2 1 5 C1.66 5.66 2.32 6.32 3 7 C0.525 8.485 0.525 8.485 -2 10 C-2.33 9.34 -2.66 8.68 -3 8 C-3.61875 8.99 -4.2375 9.98 -4.875 11 C-5.57625 11.99 -6.2775 12.98 -7 14 C-7.66 14 -8.32 14 -9 14 C-7.65070536 10.16336928 -5.92248975 7.34827431 -3.375 4.1875 C-2.42753906 3.00220703 -2.42753906 3.00220703 -1.4609375 1.79296875 C-0.97882813 1.20128906 -0.49671875 0.60960937 0 0 Z " fill="#DBD4D1" transform="translate(386,426)"/>
<path d="M0 0 C1.32 1.65 2.64 3.3 4 5 C3.01 5.99 2.02 6.98 1 8 C4.3 8.66 7.6 9.32 11 10 C11 10.33 11 10.66 11 11 C5.158256 11.35050464 1.1468192 11.16727335 -4 8 C-3.2884375 7.13375 -3.2884375 7.13375 -2.5625 6.25 C-1.0515133 4.07417916 -0.45963849 2.57397552 0 0 Z " fill="#37445A" transform="translate(724,402)"/>
<path d="M0 0 C0.33 0.66 0.66 1.32 1 2 C1.66 2.33 2.32 2.66 3 3 C0.36 6.3 -2.28 9.6 -5 13 C-5.99 12.34 -6.98 11.68 -8 11 C-5.36 7.37 -2.72 3.74 0 0 Z " fill="#2D3E57" transform="translate(808,370)"/>
<path d="M0 0 C0.33 0.99 0.66 1.98 1 3 C-3.01775148 9.88757396 -3.01775148 9.88757396 -6 12 C-8.09375 11.56640625 -8.09375 11.56640625 -10 11 C-9.44570313 10.45730469 -8.89140625 9.91460937 -8.3203125 9.35546875 C-7.23363281 8.28232422 -7.23363281 8.28232422 -6.125 7.1875 C-5.40570313 6.47980469 -4.68640625 5.77210938 -3.9453125 5.04296875 C-1.84641063 2.95600806 -1.84641063 2.95600806 0 0 Z " fill="#273A4E" transform="translate(367,436)"/>
<path d="M0 0 C0.66 0.99 1.32 1.98 2 3 C-3.50623443 6.49602186 -7.40770855 8.7013076 -14 8 C-14 7.67 -14 7.34 -14 7 C-11.69 6.34 -9.38 5.68 -7 5 C-7.66 4.34 -8.32 3.68 -9 3 C-8.43410156 2.86722656 -7.86820313 2.73445313 -7.28515625 2.59765625 C-6.18494141 2.33275391 -6.18494141 2.33275391 -5.0625 2.0625 C-4.33160156 1.88847656 -3.60070312 1.71445312 -2.84765625 1.53515625 C-1.00030102 1.16112431 -1.00030102 1.16112431 0 0 Z " fill="#536071" transform="translate(844,405)"/>
<path d="M0 0 C0.66 0.33 1.32 0.66 2 1 C2 1.66 2 2.32 2 3 C3.32 3 4.64 3 6 3 C6 5.97 6 8.94 6 12 C5.67 12 5.34 12 5 12 C5 10.35 5 8.7 5 7 C3.02 7.99 3.02 7.99 1 9 C0.63877119 7.68942607 0.28619689 6.37646376 -0.0625 5.0625 C-0.35833984 3.96615234 -0.35833984 3.96615234 -0.66015625 2.84765625 C-0.77230469 2.23792969 -0.88445313 1.62820313 -1 1 C-0.67 0.67 -0.34 0.34 0 0 Z " fill="#0D1B31" transform="translate(845,378)"/>
<path d="M0 0 C0.99 0 1.98 0 3 0 C4.4606285 2.64738916 5 3.89448334 5 7 C3.02 7 1.04 7 -1 7 C-2 4 -2 4 -1.0625 1.8125 C-0.5365625 0.9153125 -0.5365625 0.9153125 0 0 Z " fill="#C9CCD0" transform="translate(551,449)"/>
<path d="M0 0 C0.309375 0.61875 0.61875 1.2375 0.9375 1.875 C4.04517188 5.07684376 7.70403806 5.31552808 12 6 C10 8 10 8 7.8359375 8.1953125 C6.61777344 8.16050781 6.61777344 8.16050781 5.375 8.125 C4.55773437 8.10695313 3.74046875 8.08890625 2.8984375 8.0703125 C2.27195312 8.04710937 1.64546875 8.02390625 1 8 C0.17361624 5.10765685 0 3.11257569 0 0 Z " fill="#C7AF7C" transform="translate(524,405)"/>
<path d="M0 0 C0 0.66 0 1.32 0 2 C0.680625 1.814375 1.36125 1.62875 2.0625 1.4375 C5.57232191 0.91476057 8.52188063 1.38621423 12 2 C12 2.33 12 2.66 12 3 C5.07 3 -1.86 3 -9 3 C-9 2.34 -9 1.68 -9 1 C-5.94152152 0.45627049 -3.11227195 0 0 0 Z " fill="#041832" transform="translate(351,453)"/>
<path d="M0 0 C0.66 0.33 1.32 0.66 2 1 C2 1.66 2 2.32 2 3 C2.99 3 3.98 3 5 3 C5 4.32 5 5.64 5 7 C4.34 7 3.68 7 3 7 C3 7.66 3 8.32 3 9 C2.34 9 1.68 9 1 9 C1 8.01 1 7.02 1 6 C0.01 6 -0.98 6 -2 6 C-1.49396008 3.83125748 -1.00016187 2.00032373 0 0 Z " fill="#0D1937" transform="translate(731,380)"/>
<path d="M0 0 C6.8359375 -0.1953125 6.8359375 -0.1953125 9 0 C9.66 0.66 10.32 1.32 11 2 C10.625 4.125 10.625 4.125 10 6 C9.34 5.01 8.68 4.02 8 3 C4.91634129 2.7497843 4.91634129 2.7497843 2 3 C1.67 4.98 1.34 6.96 1 9 C0.67 9 0.34 9 0 9 C0 6.03 0 3.06 0 0 Z " fill="#969CA6" transform="translate(601,446)"/>
<path d="M0 0 C0.86625 0.2784375 0.86625 0.2784375 1.75 0.5625 C4.20692525 1.04023546 5.64397534 0.75729364 8 0 C7.67 1.65 7.34 3.3 7 5 C5.68 5 4.36 5 3 5 C2.67 5.99 2.34 6.98 2 8 C0.74335022 5.09399739 0 3.20395416 0 0 Z " fill="#121D34" transform="translate(860,379)"/>
<path d="M0 0 C0.99 1.485 0.99 1.485 2 3 C2.33 2.484375 2.66 1.96875 3 1.4375 C5.46229584 -0.33227513 6.25492998 -0.07158882 9.1875 0.3125 C10.445625 0.539375 11.70375 0.76625 13 1 C13 1.33 13 1.66 13 2 C11.948125 2.268125 10.89625 2.53625 9.8125 2.8125 C6.42480754 3.8676829 3.92910433 5.04726378 1 7 C0 6 0 6 -0.0625 2.9375 C-0.041875 1.968125 -0.02125 0.99875 0 0 Z " fill="#C4AC7D" transform="translate(567,379)"/>
<path d="M0 0 C4.62 0 9.24 0 14 0 C13.67 1.32 13.34 2.64 13 4 C9.53899978 4 6.39869737 3.66760127 3 3 C2.01 2.01 1.02 1.02 0 0 Z " fill="#C8B388" transform="translate(680,376)"/>
<path d="M0 0 C0.33 0 0.66 0 1 0 C1.33 2.64 1.66 5.28 2 8 C0.68 8.33 -0.64 8.66 -2 9 C-2 9.66 -2 10.32 -2 11 C-2.66 11 -3.32 11 -4 11 C-4 9.35 -4 7.7 -4 6 C-3.01 5.67 -2.02 5.34 -1 5 C-0.67 3.35 -0.34 1.7 0 0 Z " fill="#AF9558" transform="translate(693,399)"/>
<path d="M0 0 C0 0.33 0 0.66 0 1 C-1.65 1 -3.3 1 -5 1 C-4.67 2.65 -4.34 4.3 -4 6 C-6.31 5.67 -8.62 5.34 -11 5 C-10.1875 3.0625 -10.1875 3.0625 -9 1 C-5.8035914 -0.06546953 -3.34252724 -0.07427838 0 0 Z " fill="#C7B082" transform="translate(565,376)"/>
<path d="M0 0 C1.32 0 2.64 0 4 0 C4.33 1.98 4.66 3.96 5 6 C3.02 6 1.04 6 -1 6 C-0.67 4.02 -0.34 2.04 0 0 Z " fill="#0C1A34" transform="translate(791,373)"/>
<path d="M0 0 C1.25541557 3.76624671 0.37061958 5.37188934 -1 9 C-1.99 8.67 -2.98 8.34 -4 8 C-4 6.02 -4 4.04 -4 2 C-2.68 1.34 -1.36 0.68 0 0 Z " fill="#0C1730" transform="translate(830,401)"/>
<path d="M0 0 C0.33 0 0.66 0 1 0 C1.71033431 5.52967941 2.30267176 10.49983036 1 16 C-0.9960615 12.67849055 -1.24399211 10.15909894 -1.1875 6.3125 C-1.18105469 5.33925781 -1.17460938 4.36601562 -1.16796875 3.36328125 C-1 1 -1 1 0 0 Z " fill="#181F3F" transform="translate(904,387)"/>
<path d="M0 0 C-2.96283313 2.38672669 -5.94270509 4.7353371 -9 7 C-9.6875 5.1875 -9.6875 5.1875 -10 3 C-7.70195295 -1.02158234 -4.18378338 -0.23681793 0 0 Z " fill="#0D1F3E" transform="translate(765,383)"/>
<path d="M0 0 C1.98 0 3.96 0 6 0 C5.75 1.875 5.75 1.875 5 4 C2.9375 5.25 2.9375 5.25 1 6 C0 1.125 0 1.125 0 0 Z " fill="#0E1D36" transform="translate(811,363)"/>
<path d="M0 0 C0.90105469 0.02707031 1.80210937 0.05414063 2.73046875 0.08203125 C3.76107422 0.13423828 3.76107422 0.13423828 4.8125 0.1875 C5.1425 0.8475 5.4725 1.5075 5.8125 2.1875 C2.65743858 3.12369813 -0.15336502 3.2932123 -3.4375 3.25 C-4.32953125 3.24097656 -5.2215625 3.23195313 -6.140625 3.22265625 C-6.81609375 3.21105469 -7.4915625 3.19945312 -8.1875 3.1875 C-5.67753317 0.01043235 -3.96125134 -0.15433447 0 0 Z " fill="#47546C" transform="translate(737.1875,360.8125)"/>
<path d="M0 0 C1.93627769 -0.10807131 3.87427756 -0.1856225 5.8125 -0.25 C7.43091797 -0.31960938 7.43091797 -0.31960938 9.08203125 -0.390625 C12 0 12 0 13.88671875 2.015625 C14.25410156 2.67046875 14.62148438 3.3253125 15 4 C13.68 4 12.36 4 11 4 C10.34 3.34 9.68 2.68 9 2 C8.01 2.495 8.01 2.495 7 3 C4.6505947 2.39239518 2.31470912 1.72870472 0 1 C0 0.67 0 0.34 0 0 Z " fill="#2F3954" transform="translate(836,377)"/>
<path d="M0 0 C1.65 0.33 3.3 0.66 5 1 C5 1.66 5 2.32 5 3 C-0.61 3 -6.22 3 -12 3 C-12 2.67 -12 2.34 -12 2 C-8.04 2 -4.08 2 0 2 C0 1.34 0 0.68 0 0 Z " fill="#404F63" transform="translate(787,409)"/>
<path d="M0 0 C1.1875 1.5625 1.1875 1.5625 2 4 C0.625 7.75 0.625 7.75 -1 11 C-1.66 10.01 -2.32 9.02 -3 8 C-3.66 7.67 -4.32 7.34 -5 7 C-3.35 4.69 -1.7 2.38 0 0 Z " fill="#384B63" transform="translate(788,397)"/>
<path d="M0 0 C2.64 0 5.28 0 8 0 C8 0.99 8 1.98 8 3 C5.69 3.33 3.38 3.66 1 4 C0.67 2.68 0.34 1.36 0 0 Z " fill="#3D4960" transform="translate(453,343)"/>
<path d="M0 0 C3.4375 0.3125 3.4375 0.3125 5.4375 1.3125 C5.4375 1.9725 5.4375 2.6325 5.4375 3.3125 C3.58125 3.2815625 3.58125 3.2815625 1.6875 3.25 C-1.2265825 3.24483319 -3.77203327 3.38234442 -6.5625 4.3125 C-4.7099227 0.82529566 -4.05178209 0.35541948 0 0 Z " fill="#969BA4" transform="translate(669.5625,445.6875)"/>
<path d="M0 0 C0.33 0 0.66 0 1 0 C1.33 3.63 1.66 7.26 2 11 C-0.475 10.01 -0.475 10.01 -3 9 C-3 8.01 -3 7.02 -3 6 C-2.34 5.67 -1.68 5.34 -1 5 C-0.34444881 2.47266765 -0.34444881 2.47266765 0 0 Z " fill="#C1AB7C" transform="translate(396,353)"/>
<path d="M0 0 C0.33 0.99 0.66 1.98 1 3 C0.01 4.485 0.01 4.485 -1 6 C0.32 6.33 1.64 6.66 3 7 C0.69 7.66 -1.62 8.32 -4 9 C-3.46930939 5.17902761 -2.50298434 2.93828597 0 0 Z " fill="#BBA466" transform="translate(384,436)"/>
<path d="M0 0 C0.66 0.33 1.32 0.66 2 1 C2.625 4.0625 2.625 4.0625 3 7 C1.02 7.99 1.02 7.99 -1 9 C-2.0326802 6.21176345 -2.04509293 5.1322726 -1.0625 2.25 C-0.711875 1.5075 -0.36125 0.765 0 0 Z " fill="#24304B" transform="translate(730,374)"/>
<path d="M0 0 C1 3 1 3 -0.1875 5.625 C-2 8 -2 8 -6 9 C-4.02 6.03 -2.04 3.06 0 0 Z " fill="#253748" transform="translate(378,422)"/>
<path d="M0 0 C0 0.66 0 1.32 0 2 C0.99 2.66 1.98 3.32 3 4 C0.03 4 -2.94 4 -6 4 C-6 3.01 -6 2.02 -6 1 C-3 0 -3 0 0 0 Z " fill="#B4964F" transform="translate(675,407)"/>
<path d="M0 0 C1.98 0 3.96 0 6 0 C4.35 1.98 2.7 3.96 1 6 C0.34 5.67 -0.32 5.34 -1 5 C-0.67 3.35 -0.34 1.7 0 0 Z " fill="#1A2A44" transform="translate(887,378)"/>
<path d="M0 0 C3.63 0 7.26 0 11 0 C11 0.33 11 0.66 11 1 C8.33333333 1.66666667 5.66666667 2.33333333 3 3 C2.25234375 3.18691406 1.5046875 3.37382812 0.734375 3.56640625 C0.16203125 3.70949219 -0.4103125 3.85257812 -1 4 C-0.67 2.68 -0.34 1.36 0 0 Z " fill="#B79A5C" transform="translate(678,377)"/>
<path d="M0 0 C1.42944945 2.35438733 2.08661261 3.48032433 1.625 6.25 C1.41875 6.8275 1.2125 7.405 1 8 C0.67 7.34 0.34 6.68 0 6 C-2.52733235 5.34444881 -2.52733235 5.34444881 -5 5 C-3.35 3.35 -1.7 1.7 0 0 Z " fill="#C3AA78" transform="translate(647,403)"/>
<path d="M0 0 C0.66 0.33 1.32 0.66 2 1 C1.46930939 4.82097239 0.50298434 7.06171403 -2 10 C-2.1953125 3.9453125 -2.1953125 3.9453125 -2 2 C-1.34 1.34 -0.68 0.68 0 0 Z " fill="#212B42" transform="translate(827,398)"/>
<path d="M0 0 C2.31 0.33 4.62 0.66 7 1 C7 1.99 7 2.98 7 4 C5.02 4 3.04 4 1 4 C0.67 2.68 0.34 1.36 0 0 Z " fill="#2A3756" transform="translate(462,446)"/>
<path d="M0 0 C2 1 2 1 3.125 4.0625 C3.41375 5.031875 3.7025 6.00125 4 7 C2.35 7 0.7 7 -1 7 C-0.67 4.69 -0.34 2.38 0 0 Z " fill="#B19453" transform="translate(522,404)"/>
<path d="M0 0 C2.64 0 5.28 0 8 0 C7.67 0.99 7.34 1.98 7 3 C4 4 4 4 1.8125 3.0625 C1.214375 2.711875 0.61625 2.36125 0 2 C0 1.34 0 0.68 0 0 Z " fill="#222F4B" transform="translate(750,383)"/>
<path d="M0 0 C0.33 0.99 0.66 1.98 1 3 C-0.25 5.1875 -0.25 5.1875 -2 7 C-2.99 7 -3.98 7 -5 7 C-3.75023244 3.34683329 -3.32901247 2.21934164 0 0 Z " fill="#091B36" transform="translate(418,381)"/>
<path d="M0 0 C0.66 0 1.32 0 2 0 C2 2.31 2 4.62 2 7 C1.01 7.495 1.01 7.495 0 8 C-0.38063221 5.6739143 -0.71269945 3.33944736 -1 1 C-0.67 0.67 -0.34 0.34 0 0 Z " fill="#A6ABB1" transform="translate(663,450)"/>
<path d="M0 0 C0.99 0 1.98 0 3 0 C3.33 0.66 3.66 1.32 4 2 C7.02934491 2.65772428 7.02934491 2.65772428 10 3 C10 3.33 10 3.66 10 4 C6.37 4 2.74 4 -1 4 C-0.67 2.68 -0.34 1.36 0 0 Z " fill="#031532" transform="translate(725,407)"/>
<path d="M0 0 C0.625 1.875 0.625 1.875 1 4 C0.34 4.66 -0.32 5.32 -1 6 C-1.40047444 8.32275177 -1.7397104 10.65739357 -2 13 C-2.33 13 -2.66 13 -3 13 C-3.4726477 4.80743982 -3.4726477 4.80743982 -1.5 1.4375 C-0.7575 0.7259375 -0.7575 0.7259375 0 0 Z " fill="#485062" transform="translate(719,391)"/>
<path d="M0 0 C2.31 0 4.62 0 7 0 C6.34 1.32 5.68 2.64 5 4 C3.35 3.67 1.7 3.34 0 3 C0 2.01 0 1.02 0 0 Z " fill="#C3AD7F" transform="translate(690,356)"/>
<path d="M0 0 C2.64 0 5.28 0 8 0 C7.67 0.99 7.34 1.98 7 3 C5.125 3.8125 5.125 3.8125 3 4 C2.01 3.34 1.02 2.68 0 2 C0 1.34 0 0.68 0 0 Z " fill="#BCA067" transform="translate(585,407)"/>
<path d="M0 0 C0.33 0.66 0.66 1.32 1 2 C1.99 1.67 2.98 1.34 4 1 C4 1.99 4 2.98 4 4 C3.34 4 2.68 4 2 4 C2 4.66 2 5.32 2 6 C2.66 6.33 3.32 6.66 4 7 C3.01 7 2.02 7 1 7 C0.67 4.69 0.34 2.38 0 0 Z " fill="#172540" transform="translate(717,401)"/>
<path d="M0 0 C1.32 0 2.64 0 4 0 C4.66 1.65 5.32 3.3 6 5 C5.01 5.33 4.02 5.66 3 6 C2.01 4.02 1.02 2.04 0 0 Z " fill="#24334C" transform="translate(790,379)"/>
<path d="M0 0 C0.66 0.33 1.32 0.66 2 1 C2.1875 3.8125 2.1875 3.8125 2 7 C1.01 7.99 0.02 8.98 -1 10 C-0.67 6.7 -0.34 3.4 0 0 Z " fill="#414C60" transform="translate(747,366)"/>
<path d="M0 0 C3.3 0.33 6.6 0.66 10 1 C10 1.33 10 1.66 10 2 C6.92382812 2.29296875 6.92382812 2.29296875 3.84765625 2.5859375 C3.23792969 2.72257812 2.62820313 2.85921875 2 3 C1.67 3.66 1.34 4.32 1 5 C0.34 5 -0.32 5 -1 5 C-0.67 3.35 -0.34 1.7 0 0 Z " fill="#B0B6BC" transform="translate(642,456)"/>
<path d="M0 0 C-0.33 1.65 -0.66 3.3 -1 5 C-1.66 4.01 -2.32 3.02 -3 2 C-6.06556598 1.26656572 -6.06556598 1.26656572 -9 1 C-5.64919071 -1.10976881 -3.77897651 -1.0497157 0 0 Z " fill="#AAACB3" transform="translate(632,447)"/>
<path d="M0 0 C0.763125 0.61875 1.52625 1.2375 2.3125 1.875 C4.99625809 4.05597052 4.99625809 4.05597052 8 6 C5.69 6 3.38 6 1 6 C0.67 4.02 0.34 2.04 0 0 Z " fill="#17283F" transform="translate(815,405)"/>
<path d="M0 0 C0 0.66 0 1.32 0 2 C-2.52475462 3.26237731 -4.31200466 3.09856404 -7.125 3.0625 C-8.03507812 3.05347656 -8.94515625 3.04445313 -9.8828125 3.03515625 C-10.58148438 3.02355469 -11.28015625 3.01195312 -12 3 C-12 2.67 -12 2.34 -12 2 C-10.56342755 1.66269158 -9.12569907 1.33030409 -7.6875 1 C-6.88699219 0.814375 -6.08648437 0.62875 -5.26171875 0.4375 C-3 0 -3 0 0 0 Z " fill="#B2924C" transform="translate(502,408)"/>
<path d="M0 0 C2.97 0.33 5.94 0.66 9 1 C7.515 2.485 7.515 2.485 6 4 C5.01 4 4.02 4 3 4 C3 3.34 3 2.68 3 2 C2.01 2 1.02 2 0 2 C0 1.34 0 0.68 0 0 Z " fill="#BD9B5B" transform="translate(635,407)"/>
<path d="M0 0 C0 0.66 0 1.32 0 2 C-1.95927063 3.7143618 -3.95880212 5.38405168 -6 7 C-6.66 6.67 -7.32 6.34 -8 6 C-3.375 0 -3.375 0 0 0 Z " fill="#C6C8CD" transform="translate(405,405)"/>
<path d="M0 0 C0.66 1.32 1.32 2.64 2 4 C0.35 5.32 -1.3 6.64 -3 8 C-3.66 7.67 -4.32 7.34 -5 7 C-3.35 4.69 -1.7 2.38 0 0 Z " fill="#27364C" transform="translate(398,396)"/>
<path d="M0 0 C0.33 0 0.66 0 1 0 C1 2.31 1 4.62 1 7 C-0.65 7.33 -2.3 7.66 -4 8 C-2.87548273 5.0280615 -1.77706209 2.66559313 0 0 Z " fill="#F4EEE3" transform="translate(515,395)"/>
<path d="M0 0 C1.32 0.66 2.64 1.32 4 2 C4 3.65 4 5.3 4 7 C3.67 5.68 3.34 4.36 3 3 C1.02 3.33 -0.96 3.66 -3 4 C-2.01 2.68 -1.02 1.36 0 0 Z " fill="#C1AA78" transform="translate(614,378)"/>
<path d="M0 0 C2.6855594 2.6855594 3.06049974 5.37621328 4 9 C1.525 8.01 1.525 8.01 -1 7 C-0.34 6.67 0.32 6.34 1 6 C0.649375 5.38125 0.29875 4.7625 -0.0625 4.125 C-0.371875 3.42375 -0.68125 2.7225 -1 2 C-0.67 1.34 -0.34 0.68 0 0 Z " fill="#323F58" transform="translate(870,388)"/>
<path d="M0 0 C-1.32 1.32 -2.64 2.64 -4 4 C-4 3.34 -4 2.68 -4 2 C-5.32 2.33 -6.64 2.66 -8 3 C-8 2.34 -8 1.68 -8 1 C-3.375 -1.125 -3.375 -1.125 0 0 Z " fill="#1C2A41" transform="translate(734,364)"/>
</svg>
